<svg width="36" height="36" viewBox="0 0 36 36" fill="none" xmlns="http://www.w3.org/2000/svg">
<path d="M7.05157 0C3.17376 0 0 3.17369 0 7.05157V28.9338C0 32.8117 3.17369 35.9843 7.05157 35.9843H28.9339C32.8117 35.9843 35.9843 32.8117 35.9843 28.9338V7.05157C35.9843 3.17376 32.8117 0 28.9339 0H7.05157ZM8.82515 5.93813C10.6845 5.93813 11.8297 7.15874 11.8651 8.76323C11.8651 10.3323 10.6844 11.5872 8.78919 11.5872H8.7543C6.93036 11.5872 5.75147 10.3324 5.75147 8.76323C5.75147 7.15878 6.96604 5.93813 8.82511 5.93813H8.82515ZM24.848 13.4373C28.4239 13.4373 31.1045 15.7745 31.1045 20.797V30.1731H25.6702V21.4256C25.6702 19.2275 24.8837 17.7278 22.917 17.7278C21.4157 17.7278 20.5208 18.7386 20.1279 19.715C19.9844 20.0644 19.9491 20.5523 19.9491 21.041V30.1731H14.5148C14.5148 30.1731 14.5861 15.3551 14.5148 13.8208H19.9502V16.1364C20.6724 15.0222 21.9641 13.4373 24.848 13.4373V13.4373ZM6.07201 13.8219H11.5063V30.1732H6.07201V13.8219V13.8219Z" fill="black"/>
</svg>
